/* XPM */
static char *_e14ce128bfd47cd99c3e9da9b5e254bTjUTGOPbbRvNawdY[] = {
/* columns rows colors chars-per-pixel */
"64 64 8 1 ",
"  c None",
". c #881212",
"X c #F10000",
"o c #1E89CA",
"O c #D98686",
"+ c #D7B1B1",
"@ c #EFCCCC",
"# c #FFF9F9",
/* pixels */
"                                                                ",
"                                                                ",
"                                                                ",
"                                                                ",
"                                                                ",
"                                                                ",
"                                                                ",
"                                                                ",
"           oo o oo   oo       +++       oo   oo o oo            ",
"         o         o    o    +O+O+    o    o         o          ",
"       o   oo   oo        o +++++++ o           oo     o        ",
"                      o  @@@@@@@@@@@@@ oo  oo                   ",
"     o    o  oo    oo   @@@@X##X##X@@@@       o     o    o      ",
"                o      @@@XXX##X##XXX@@@   oo   oo              ",
"    o                 @@@XXXXXXXXXXXXX@@@                 o     ",
"           oo        @@@XXXX...X...XXXX@@@    oo    oo          ",
"                   ++@@XXXX.........XXXX@@++                    ",
"                   +@@@XXXX.........XXXX@@@+                    ",
"                  ++@@@XXX.....@.....XXX@@@++                   ",
"                  +@@@XXXXX...@@@...XXXXX@@@+                   ",
"                  +@@@XXXXX..@@@@@..XXXXX@@@+                   ",
"                   @@@XXXXXXX@@@@@XXXXXXX@@@                    ",
"                   @@@XXXXXXX@@@@@XXXXXXX@@@                    ",
"                   @@@XXXXXX@@@@@@@XXXXXX@@@                    ",
"                   @@@@XXXX@@@@@@@@@XXXX@@@@                    ",
"                   @@@@@@@@@@@@@@@@@@@@@@@@@                    ",
"                    @@@@@@@@@@@@@@@@@@@@@@@                     ",
"                     @@@@@@@@@@@@@@@@@@@@@                      ",
"                   +++++++++@@@@@@@@@+++++++                    ",
"                 +++++++++++++@@@@@+++++++++++                  ",
"                +++++++++++++++++++++++++++++++                 ",
"                +++++++++++++++++++++++++++++++                 ",
"               +++++++++++++++++++++++++++++++++                ",
"              +++++++++++++++++++++++++++++++++++               ",
"             ++++++ +++++++++++++++++++++++ ++++++              ",
"             +++++  +++++++++++++++++++++++  +++++              ",
"             ++++   +++++++++++++++++++++++   ++++              ",
"            +++++   +++++++++++++++++++++++   +++++             ",
"            +++++@@@+++++++++++++++++++++++@@@+++++             ",
"            ++++@@@@@+++++++++++++++++++++@@@@@++++             ",
"            ++++@@@@@@###################@@@@@@++++             ",
"            +++@@@@@@@@#################@@@@@@@@+++             ",
"            +++@@@@@@@@@###############@@@@@@@@@+++             ",
"            +++@@@@@@@@@@@###########@@@@@@@@@@@+++             ",
"          +++++@@@@@@@@@@@@#########@@@@@@@@@@@@+++++           ",
"          +++++@@@@@@@@@@@@#########@@@@@@@@@@@@+++++           ",
"         ++@@@+@@@@@@@@@@@@#########@@@@@@@@@@@@+@@@++          ",
"         +@@@@@@@@@@@@@@@@###########@@@@@@#@@@@@@@@@+          ",
"         +@@@@@@@@@ #@@@@#############@@@@# @@@@@@@@@+          ",
"         +@@@@@@@@@  #####################  @@@@@@@@@+          ",
"         +@@@@@@@@@                         @@@@@@@@@+          ",
"          @@@@@@@@@                         @@@@@@@@@           ",
"            @@@@@@@                         @@@@@@@             ",
"             @@@@@                           @@@@@              ",
"                                                                ",
"                                                                ",
"                                                                ",
"                                                                ",
"                                                                ",
"                                                                ",
"                                                                ",
"                                                                ",
"                                                                ",
"                                                                "
};
