/* XPM */
static char *Chat_idle[] = {
/* columns rows colors chars-per-pixel */
"32 32 7 1 ",
"  c gray3",
". c #423934",
"X c #477238",
"o c #5A4E44",
"O c #60B045",
"+ c gray68",
"@ c white",
/* pixels */
"@@@@@@@@@@@@@@@@@@@@@@@@@@@@@@@@",
"@@@@@@@@@@@@@@  @@@@@@@@@@@@@@@@",
"@@@@@@@@@@@@@ .. @@@@@@@@@@@@@@@",
"@@@@@@@@@@@@@ o. @@@@@@@@@@@@@@@",
"@@@@@@@@@@@@@ o. @@@@@@@@@@@@@@@",
"@@@@@@@@@@@@@ o. @@@@@@@@@@@@@@@",
"@@@@@@@@@@@@@ o. @@@@@@@@@@@@@@@",
"@@@@@@@@@@@@@ .. @@@@@@@@@@@@@@@",
"@@@@@@@@@@@@@ .. @@@@@@@@@@@@@@@",
"@@@@@@@@@@@@@     @@@@@@@@@@@@@@",
"@@@@@@@@@@@@ ..... @@@@@@@@@@@@@",
"@@@@@@@@@@@ .ooooo. @@@@@@@@@@@@",
"@@@@@@@@@@ .ooooo... @@@@@@@@@@@",
"@@@@@@@@@@ .       . @@@@@@@@@@@",
"@@@@@@@@@@  .......  @@@@@@@@@@@",
"@@@@@@@@@@ ..oooo... @@@@@@@@@@@",
"@@@@@@@@@@ .ooooooo. @@@@@@@@@@@",
"@@@@@@@@@@ ooooooooo @@@@@@@@@@@",
"@@@@@@@@@@ oXXoooXXo @@@@@@@@@@@",
"@@@@@@@@@  oOXoooXOo  @@@@@@@@@@",
"@@@@@@@@@@ ...  .oo. @@@@@@@@@@@",
"@@@@@@@@@  ..ooooo..  @@@@@@@@@@",
"@@@@@@@@@@ ......... @@@@@@@@@@@",
"@@@@@@@@@@  .ooooo.  @@@@@@@@@@@",
"@@@@@@@@@@+  oooo   +@@@@@@@@@@@",
"@@@@@@@@@@++       ++@@@@@@@@@@@",
"@@@@@@@@@@++ .  .. ++@@@@@@@@@@@",
"@@@@@@@@@@++ .  .. ++@@@@@@@@@@@",
"@@@@@@@@@@+++ ++  +++@@@@@@@@@@@",
"@@@@@@@@@@@+++++++++@@@@@@@@@@@@",
"@@@@@@@@@@@@+++++++@@@@@@@@@@@@@",
"@@@@@@@@@@@@@@@@@@@@@@@@@@@@@@@@"
};
