/* XPM */
static char *Chat_gauche[] = {
/* columns rows colors chars-per-pixel */
"32 32 7 1 ",
"  c gray3",
". c #423934",
"X c #477238",
"o c #5A4E44",
"O c #60B045",
"+ c gray68",
"@ c white",
/* pixels */
"@@@@@@@@@@@@@@@@@@@@@@@@@@@@@@@@",
"@@@@@@@@@@@@@@@@@@@@@@@@@@@@@@@@",
"@@@@@@@@@@@@@@@@@@@@@@@@@@@@@@@@",
"@@@@@@@@@@@@@@@@@@@@@@@@@@@@@@@@",
"@@@@@@@@@@@@@@@@@@@@@@@@@@@@@@@@",
"@@@@@@@@@@@@@@@@@@@@@@@@@@@@@@@@",
"@@@@@@@@@@@@@@@@@@@@@@@@ @@@@@@@",
"@@@@@@@@@@@@@@@@@@@@@@@ . @@@@@@",
"@@@@@@@@@@@@@@@@@@@@@@@ . @@@@@@",
"@@@@@@@@@@@@@@@@@@@@@@@ o @@@@@@",
"@@@@@@@@@  @@@@@@@@@@@@ o @@@@@@",
"@@@@  @@ oo @@@@@@@@@@@ o @@@@@@",
"@@@ oo  ...o @@@@@@@@@@ o @@@@@@",
"@@@ o......o @@@@@@@@@@ o @@@@@@",
"@@@ ..oooo..o@@@@@@@@@ .. @@@@@@",
"@@@ .ooooooo.          .. @@@@@@",
"@@@ ooooooooo..ooooo.... @@@@@@@",
"@@ .oooXXooo.ooooooooo.. @@@@@@@",
"@@ .oooXOooo oooooooooo. @@@@@@@",
"@@ .oooooooo oooooooooo @@@@@@@@",
"@@@ .oooooo. oooooooooo @@@@@@@@",
"@@@@  .oo.  ..ooo.oooo. @@@@@@@@",
"@@@@@@     o.......oo.  @@@@@@@@",
"@@@@@@@@+ ooo...  .... +@@@@@@@@",
"@@@@@@@@+ o.o.. + .oo. +@@@@@@@@",
"@@@@@@@@+ o.o. +++ ooo +@@@@@@@@",
"@@@@@@@@+ o.o ++++ .oo +@@@@@@@@",
"@@@@@@@@+  .. ++++ ... +@@@@@@@@",
"@@@@@@@@@++  ++@@++   ++@@@@@@@@",
"@@@@@@@@@@+++++@@@+++++@@@@@@@@@",
"@@@@@@@@@@@@@@@@@@@@@@@@@@@@@@@@",
"@@@@@@@@@@@@@@@@@@@@@@@@@@@@@@@@"};
