/* XPM */
static char *Chat_haut[] = {
/* columns rows colors chars-per-pixel */
"32 32 5 1 ",
"  c gray3",
". c #423934",
"X c #5A4E44",
"o c gray68",
"O c white",
/* pixels */
"OOOOOOOOOOOOOOOOOOOOOOOOOOOOOOOO",
"OOOOOOOOOOOOOOOOOOOOOOOOOOOOOOOO",
"OOOOOOOOOOOOOOOOOOOOOOOOOOOOOOOO",
"OOOOOOOOOOOOOOOOOOOOOOOOOOOOOOOO",
"OOOOOOOOOOO OOOOOOO OOOOOOOOOOOO",
"OOOOOOOOOO X OOOOO X OOOOOOOOOOO",
"OOOOOOOOOO XX     XX OOOOOOOOOOO",
"OOOOOOOOOO .XXXXXXX. OOOOOOOOOOO",
"OOOOOOOOOO X.XXXXX.X OOOOOOOOOOO",
"OOOOOOOOO  X..X XX.X  OOOOOOOOOO",
"OOOOOOOOOO ...X ..X. OOOOOOOOOOO",
"OOOOOOOOO  ...X X.XX  OOOOOOOOOO",
"OOOOOOOOOO .X.X XXXX OOOOOOOOOOO",
"OOOOOOOOO .XX X XXXXX OOOOOOOOOO",
"OOOOOOOOO .XX X..XXXX OOOOOOOOOO",
"OOOOOOOOO ..X X..XX.X OOOOOOOOOO",
"OOOOOOOOO X.X .XXXX.X OOOOOOOOOO",
"OOOOOOOOO X.X..XXXX.X OOOOOOOOOO",
"OOOOOOOOO X...XXXX..X OOOOOOOOOO",
"OOOOOOOOO ....XXX.... OOOOOOOOOO",
"OOOOOOOOOO ..XXXX..X OOOOOOOOOOO",
"OOOOOOOOOO ..XXXX..X OOOOOOOOOOO",
"OOOOOOOOOO ...  .XX. OOOOOOOOOOO",
"OOOOOOOOOOo X oo XX oOOOOOOOOOOO",
"OOOOOOOOOOo X oo XX oOOOOOOOOOOO",
"OOOOOOOOOOo . oo .. oOOOOOOOOOOO",
"OOOOOOOOOOoo  oo   ooOOOOOOOOOOO",
"OOOOOOOOOOOoooooooooOOOOOOOOOOOO",
"OOOOOOOOOOOOoooooooOOOOOOOOOOOOO",
"OOOOOOOOOOOOOOOOOOOOOOOOOOOOOOOO",
"OOOOOOOOOOOOOOOOOOOOOOOOOOOOOOOO",
"OOOOOOOOOOOOOOOOOOOOOOOOOOOOOOOO"
};
