/* XPM */
static char *Chat_droite[] = {
/* columns rows colors chars-per-pixel */
"32 32 7 1 ",
"  c gray3",
". c #423934",
"X c #477238",
"o c #5A4E44",
"O c #60B045",
"+ c gray68",
"@ c white",
/* pixels */
"@@@@@@@@@@@@@@@@@@@@@@@@@@@@@@@@",
"@@@@@@@@@@@@@@@@@@@@@@@@@@@@@@@@",
"@@@@@@@@@@@@@@@@@@@@@@@@@@@@@@@@",
"@@@@@@@@@@@@@@@@@@@@@@@@@@@@@@@@",
"@@@@@@@@@@@@@@@@@@@@@@@@@@@@@@@@",
"@@@@@@ @@@@@@@@@@@@@@@@@@@@@@@@@",
"@@@@@ . @@@@@@@@@@@@@@@@@@@@@@@@",
"@@@@@ . @@@@@@@@@@@@@@@@@@@@@@@@",
"@@@@@ o @@@@@@@@@@@@@@@@@@@@@@@@",
"@@@@@ o @@@@@@@@@@@@  @@@@@@@@@@",
"@@@@@ o @@@@@@@@@@@ oo @@  @@@@@",
"@@@@@ o @@@@@@@@@@ o...  oo @@@@",
"@@@@@ o @@@@@@@@@@ o......o @@@@",
"@@@@@ .. @@@@@@@@@o..oooo.. @@@@",
"@@@@@ ..          .ooooooo. @@@@",
"@@@@@@ ....ooooo..ooooooooo @@@@",
"@@@@@@ ..ooooooooo.oooXXooo. @@@",
"@@@@@@ .oooooooooo oooOXooo. @@@",
"@@@@@@@ oooooooooo oooooooo. @@@",
"@@@@@@@ oooooooooo .oooooo. @@@@",
"@@@@@@@ .oooo.ooo..  .oo.  @@@@@",
"@@@@@@@  .oo.......o     @@@@@@@",
"@@@@@@@+ ....  ...ooo +@@@@@@@@@",
"@@@@@@@+ .oo. + ..o.o +@@@@@@@@@",
"@@@@@@@+ ooo +++ .o.o +@@@@@@@@@",
"@@@@@@@+ oo. ++++ o.o +@@@@@@@@@",
"@@@@@@@+ ... ++++ ..  +@@@@@@@@@",
"@@@@@@@++   ++@@++  ++@@@@@@@@@@",
"@@@@@@@@+++++@@@+++++@@@@@@@@@@@",
"@@@@@@@@@@@@@@@@@@@@@@@@@@@@@@@@",
"@@@@@@@@@@@@@@@@@@@@@@@@@@@@@@@@",
"@@@@@@@@@@@@@@@@@@@@@@@@@@@@@@@@"
};
