/* XPM */
static char *_73fff7b5b2b4fb78966672b95df2fc53nXhLIRvuUHgfJZ9[] = {
/* columns rows colors chars-per-pixel */
"64 64 6 1 ",
"  c None",
". c black",
"X c #211F1F",
"o c #106C5A",
"O c #13957B",
"+ c #72E0CA",
/* pixels */
"                                                                ",
"                                                                ",
"                                                                ",
"                                                                ",
"                                                                ",
"                                                                ",
"                                                                ",
"                                                                ",
"                                                                ",
"                                                                ",
"                                                                ",
"                                                                ",
"                                                                ",
"                                                                ",
"                                                                ",
"                                                                ",
"                                                                ",
"                                                                ",
"                               .....                            ",
"                             ..o+o+o..                          ",
"                            .o+o+oOoOo.                         ",
"                           .+o+o+oOoOoO.                        ",
"                          .o+o+oOoOoOoOo.                       ",
"                          .o+oOoOoOoOoOo.                       ",
"                         .+oOoOoOoOoOoOoO.                      ",
"                         .+oOoOoOoOoOoOoO.                      ",
"                         .ooooooooooOoooO.                      ",
"                         .+++OOOOOOoooOoO.                      ",
"                         .oooooooooOOoooo.                      ",
"                          .+++OooOOOoOoO.                       ",
"                          .ooooOOOOoOo++.                       ",
"                           .++OOOooOoO+.XXX                     ",
"                            .+++o++oO+.XXXXX                    ",
"                           ....o++o+..XXXXXXXX                  ",
"                          ..   .....XXXXXX                      ",
"                        ...                                     ",
"                                                                ",
"                                                                ",
"                                                                ",
"                                                                ",
"                                                                ",
"                                                                ",
"                                                                ",
"                                                                ",
"                                                                ",
"                                                                ",
"                                                                ",
"                                                                ",
"                                                                ",
"                                                                ",
"                                                                ",
"                                                                ",
"                                                                ",
"                                                                ",
"                                                                ",
"                                                                ",
"                                                                ",
"                                                                ",
"                                                                ",
"                                                                ",
"                                                                ",
"                                                                ",
"                                                                ",
"                                                                "
};
