/* XPM */
static char *_05405ac29444bfafee5768878de0583omXKSKn78uul5uHu[] = {
/* columns rows colors chars-per-pixel */
"32 32 9 1 ",
"  c None",
". c #272320",
"X c #2B2A2A",
"o c #343230",
"O c #5A2909",
"+ c #833B0C",
"@ c #9F480F",
"# c #7F949F",
"$ c #B8DCF0",
/* pixels */
"                                ",
"                                ",
"                                ",
"                                ",
"                                ",
"                                ",
"                                ",
"                                ",
" OOOOOOO  #############       # ",
"O+++++++O#$$$$$$$$$$$$$#OOO   # ",
"O++@@@@@@$$#$#$$$$$$$$$$$+++####",
"O+@@@@@@@$$$$$$$$$$$$$$$$$@@$$$#",
"O+@@@@@@O$$$###########$$@@@### ",
"O+@@@@@O #$$$$$$$$$$$$$$OOO     ",
"O+@@@@O   O+++OO########        ",
"O+@@@O   O++@O. X .XoXo.        ",
"O+@@O   O++@@OXX  .XoXo.        ",
" OOO   O++@@@O     .XoXo.       ",
"       O+@@@O      .XoXo.       ",
"       O+@@@O       .XoXo.      ",
"       O+@@O         .XoXo.     ",
"        O+@O          ....      ",
"         OO                     ",
"                                ",
"                                ",
"                                ",
"                                ",
"                                ",
"                                ",
"                                ",
"                                ",
"                                "
};
