/* XPM */
static char *chest_open[] = {
/* columns rows colors chars-per-pixel */
"32 32 13 1 ",
"  c black",
". c #3B0001",
"X c #472F1E",
"o c #5D3C25",
"O c #6E462A",
"+ c #293440",
"@ c #966D50",
"# c #C59968",
"$ c #C5B57E",
"% c #929FAD",
"& c #D4AD81",
"* c #BECCCC",
"= c white",
/* pixels */
"=     ....................     =",
"= @@.OOOOOOOOOOOOOOOOOOOOOO.@@ =",
"= ##@##&&&&&&&&&&&&&&&#####@## =",
"= &&OOOOOOOOOOOOOOOOOOOOOOOO&& =",
"=.##@######&&&&&&&&&&&&&&&&@##.=",
"=.##OOOOO@@@@@@@@@@@@@OOOOOO##.=",
"=.@@O####&&&&&&&&&&&&####&&O@@.=",
"=.@@XXXXXOOOOOOOOOOOOOXXXXXX@@.=",
"=.OOO@@@@@@@@@@@@@@@@@@@@@@OOO.=",
"=.OO....XXXXXXXXXXXXXXXXX...OO.=",
"=.OOX@@@@@@@@@@@@@@@@@@@@@@XOO.=",
"=.OOXOOOOOOOOOOOOOOOOOOOOOOXOO.=",
"= OOXOOOOOOOOOOOOOOOOOOOOOOXOO =",
"= XX........................XX =",
"=                              =",
"=.##                        $$.=",
"=.##                        $$.=",
"=.##                        $$.=",
"=.##                        $$.=",
"=.@O                        O@.=",
"=.#####################$$$$$$$.=",
"=.#####################$$$$$$$.=",
"=.OOOOOOOOOOOOOOOOOOOOOOOOOOOO.=",
"=.OOOOOOOOOOO*****OOOOOOOOOOOO.=",
"=.....XXXXXX+%+ +*+XXXXXXXX....=",
"= OOOOOOOOOOO%   *OOOOOOOOOOOO.=",
"= OOOOOOOOOOO%   %OOOOOOOOOOOO =",
"= ....XXXXXX+%% %%+XXXXXXXX... =",
"= OOOOOOOOOOO*   %OOOOOOOOOOOO =",
"= OOOOOOOOOOO**%%%OOOOOOOOOOOO =",
"= oooooooooooXXXXXoooooooooooo =",
"=     ......................   ="
};
