/* XPM */
static char *chest_close1698263897[] = {
/* columns rows colors chars-per-pixel */
"32 32 12 1 ",
"  c None",
". c black",
"X c #3B0001",
"o c #472F1E",
"O c #5D3C25",
"+ c #6E462A",
"@ c #293440",
"# c #966D50",
"$ c #C59968",
"% c #929FAD",
"& c #D4AD81",
"* c #BECCCC",
/* pixels */
" .....XXXXXXXXXXXXXXXXXXXX..... ",
" .##X++++++++++++++++++++++X##. ",
" .$$#$$$$$$$$$$$$$$$$$$$$$$#$$. ",
" .$$#$$&&&&&&&&&&&&&&&$$$$$#$$. ",
" .&&++++++++++++++++++++++++&&. ",
" X&&#&&&&&&&&$$$$$$$$$$$$$$#&&X ",
" X&&#&&&&&&&&&&&&&&&&&&&&&&#&&X ",
" X$$#$$$$$$&&&&&&&&&&&&&&&&#$$X ",
" X$$+++++#############++++++$$X ",
" X###&&&&&&&&&&&&&&&&$$$$$$###X ",
" X###&&&&&&&&&&&&&&&&$$$$&&###X ",
" X##+$$$$&&&&&&&&&&&&$$$$&&+##X ",
" X##ooooo+++++++++++++oooooo##X ",
" X+++$$$$$$$$$$$$$$$$$$$$$$+++X ",
" X+++######################+++X ",
" X+++######################+++X ",
" X++XXXXoooooooooooooooooXXX++X ",
" X++o######################o++X ",
" X++o++++++++++++++++++++++o++X ",
" .++o++++++++++++++++++++++o++. ",
" .ooXXXXXXXXXXXXXXXXXXXXXXXXoo. ",
" .............................. ",
" X++++++++++++++++++++++++++++X ",
" X+++++++++++*****++++++++++++X ",
" XXXXXoooooo@%@.@*@ooooooooXXXX ",
" .+++++++++++%...*++++++++++++X ",
" .+++++++++++%...%++++++++++++. ",
" .XXXXoooooo@%%.%%@ooooooooXXX. ",
" .+++++++++++*...%++++++++++++. ",
" .+++++++++++**%%%++++++++++++. ",
" .OOOOOOOOOOOoooooOOOOOOOOOOOO. ",
" .....XXXXXXXXXXXXXXXXXXXXXX... "
};
