/* XPM */
static char *ca0a24c8f84e4d62bb679762d3cee2abcnZUMYiSi2zGeYHR[] = {
/* columns rows colors chars-per-pixel */
"64 64 12 1 ",
"  c None",
". c black",
"X c #040300",
"o c #120B02",
"O c #201404",
"+ c #2E1C05",
"@ c #3C2406",
"# c #4A2C07",
"$ c #583408",
"% c #663C09",
"& c #116609",
"* c #9CE465",
/* pixels */
"                                                                ",
"                                                                ",
"                                                                ",
"                                                                ",
"                                                                ",
"                                                                ",
"                                                                ",
"                                                                ",
"                                                                ",
"                                                                ",
"                                                                ",
"                                                                ",
"                                                                ",
"                                                                ",
"                                                                ",
"                                                                ",
"                             ........                           ",
"                           ..%$o@+.OX..                         ",
"                         ..Oo.@%%%%%$o%..                       ",
"                        .%X$%%%X@@ooO@+.%.                      ",
"                       .o+%.X++$%%%%$O%$XO.                     ",
"                      .O@Oo@%%%%%%%%%oo%%X%.                    ",
"                      .X%+%%%*******%%@+%o+.                    ",
"                     .#o%o%%%*&&&&&&&%%o$%X%.                   ",
"                     ..o%O%%%*&*****%%%%o%O+.                   ",
"                    .X.@O#%%%*&*%%%%%%%%%O%OO.                  ",
"                    ..%.%%%%%*&*%%%%%%%%%$+O%.                  ",
"                    .o#O%%%%%*&****%%%%%%$Xo%.                  ",
"                    .oo#%%%%%*&&&&&&%%%%%#o%+.                  ",
"                    ..%X%%%%%*&****%%%%%%%X%..                  ",
"                    .+Oo#%%%%*&*%%%%%%%%%O+%o.                  ",
"                    .%X%#@%%%*&*%%%%%%%%%O%o@.                  ",
"                     .X%%.%%%*&*****%%%%%o%+.                   ",
"                     .%.%.%%%*&&&&&&&%%%.%%O.                   ",
"                      .@$$+%%*******%%%%+%o.                    ",
"                      .%.%#@+@%%%%%%%%$OXO#.                    ",
"                       .+@%%%X+$%%%O@#.%%o.                     ",
"                        .@+o%%%#O.+%O@#XO.                      ",
"                         ..@++%%%%%%%%X..                       ",
"                           ..@.@#.++o..                         ",
"                             ........                           ",
"                                                                ",
"                                                                ",
"                                                                ",
"                                                                ",
"                                                                ",
"                                                                ",
"                                                                ",
"                                                                ",
"                                                                ",
"                                                                ",
"                                                                ",
"                                                                ",
"                                                                ",
"                                                                ",
"                                                                ",
"                                                                ",
"                                                                ",
"                                                                ",
"                                                                ",
"                                                                ",
"                                                                ",
"                                                                ",
"                                                                "
};
