/* XPM */
static char *d38d395ed4a146bcc613b4cea6cbac4cu7JZsguuEFIAQISc[] = {
/* columns rows colors chars-per-pixel */
"64 64 16 1 ",
"  c None",
". c black",
"X c #040300",
"o c #120B02",
"O c #201404",
"+ c #2E1C05",
"@ c #3C2406",
"# c #4A2C07",
"$ c #583408",
"% c #663C09",
"& c #16443D",
"* c #0B5045",
"= c #096A5B",
"- c #2CE01C",
"; c #04AF95",
": c #90F388",
/* pixels */
"                                                                ",
"                                                                ",
"                                                                ",
"                                                                ",
"                                                                ",
"                                                                ",
"                                                                ",
"                                                                ",
"                                                                ",
"                                                                ",
"                                                                ",
"                                                                ",
"                                                                ",
"                        ....                                    ",
"                       .%%%%.                                   ",
"                       .%%%%.                                   ",
"                      .%%%%%%........                           ",
"                      .%%%%%%.$o@+.OX..                         ",
"                     .%%%%%%%..%%%%%$o%..                       ",
"                     .%%%%::-%.;;;;;;;+.%.                      ",
"                     .%%%::--%.;&&&;;;;$XO.                     ",
"                     .%%::-:%%.;&**&&;;%%X%.                    ",
"                    .%%::-::%%.;&&**&&;;%o+.                    ",
"                    .%::-::%%%.;;&***&&;;%X%.                   ",
"                    .::--:%%%%.;;&****&;;;O+.                   ",
"                    .:--::%%%%.;&&*==*&&&;;OO.                  ",
"                    .:--:%%%%%.;&**==****&;O%.                  ",
"                    .::-:%%%%%.&&*======*&;o%.                  ",
"                    .::-:%%%%%.&***=====*&;%+.                  ",
"                    .%:-:::%%%.&&***===**&;%..                  ",
"                    .%:-----%%.;&&&*==**&;;%o.                  ",
"                    .%:-:::%%%.;;;**==*&;;%o@.                  ",
"                    .%:-:%%%%%.;;&*===*&;;%+.                   ",
"                    .%:-:%%%%%.;;&*==**&;%%O.                   ",
"                    .%:-::%%%%.;&****&&;+%o.                    ",
"                     .:--:::%%.;***&&&;;XO#.                    ",
"                     .::---::%.;&&&;;;;%%o.                     ",
"                     .%::::-:%.;;;;;;@#XO.                      ",
"                     .%%%%::--.;;;%%%%X..                       ",
"                      .%%%%:::.@#.++o..                         ",
"                      .%%%%%%........                           ",
"                       .%%%%.                                   ",
"                       .%%%%.                                   ",
"                        ....                                    ",
"                                                                ",
"                                                                ",
"                                                                ",
"                                                                ",
"                                                                ",
"                                                                ",
"                                                                ",
"                                                                ",
"                                                                ",
"                                                                ",
"                                                                ",
"                                                                ",
"                                                                ",
"                                                                ",
"                                                                ",
"                                                                ",
"                                                                ",
"                                                                ",
"                                                                ",
"                                                                "
};
