/* XPM */
static char *b83ebcf49b05440d90b9dfdc978a87d8ZuH0h0pF4tse9Pi6[] = {
/* columns rows colors chars-per-pixel */
"32 32 6 1 ",
"  c None",
". c black",
"X c #663931",
"o c #4B692F",
"O c #9E501B",
"+ c #9D592C",
/* pixels */
"                                ",
"                                ",
"                                ",
"                                ",
"                  oo            ",
"          ooo   Xooo            ",
"     ooo  oooo XX ooo           ",
"      ooooo  oooXoo o           ",
"      ooooo oooXooo oo          ",
"         ooooO+oo+OOoooo        ",
"       ooooOOOoOOoOOoo ooo      ",
"      oo oooo+OOOo+Ooo+o o      ",
"        +OOOO+OOOO+OOOoo o      ",
"       o+..OO+OOOO+OO..+oo      ",
"     ooO+...O+OOOO+O...+Oo      ",
"    oo O+.....OOOO.....+Oo      ",
"    ooOO+.....OOOO.....+OO      ",
"     oOO+..OOOO..OOOO..+OO      ",
"      OO+OOO+O....O+OOO+OO      ",
"      OO+OOO+O.OO.O+OOO+OOo     ",
"      OO..OO+OOOOOO+OO..OOoo    ",
"      OO+..O+.OOOO.+O..+OO o    ",
"      OO+...+..OO..+...+OO o    ",
"      OO+......OO......+OOo     ",
"      OO+..............+OO      ",
"    ooOO+O............O+OOoo    ",
"    o OO+OO..+O..O+..OO+OO o    ",
"    o OO+OO..+O..O+..OO+OO oo   ",
"     oOOO+O.O+O.OO+O.O+OOO oo   ",
"     o OO+OOO+OOOO+OOO+OOooo    ",
"     oooO+OOO+OOOO+OOO+Oooo     ",
"     o ooO+OOO+OO+OOO+Oo   o    "
};
