/* XPM */
static char *golden_pyramid[] = {
/* columns rows colors chars-per-pixel */
"32 32 7 1 ",
"  c None",
". c #42381B",
"X c #65552B",
"o c #806C35",
"O c #9A8243",
"+ c #B79B50",
"@ c #FFDA77",
/* pixels */
"             .@..O.             ",
"            .+@..Oo.            ",
"           .++@..Ooo.           ",
"          .+++@..Oooo.          ",
"         .++++@..Ooooo.         ",
"        .+++++@..Oooooo.        ",
"       .++++++@..Ooooooo.       ",
"      .++++++O.++.Xoooooo.      ",
"     .+++++++O.++.Xooooooo.     ",
"    .+++++++O.+OO+.Xooooooo.    ",
"   .++++++++O.+OO+.Xoooooooo.   ",
"  .++++++++O.+OOOO+.Xoooooooo.  ",
" .+++++++++O.+OOOO+.Xooooooooo. ",
".+++++++++O.+OOOOOO+.Xooooooooo.",
"++++++++++O.+OOOOOO+.Xoooooooooo",
"+++++++++O.+OOOOOOOO+.Xooooooooo",
"+++++++++O.+OOOOOOOO+.Xooooooooo",
"++++++++O.+OOOOOOOOOO+.Xoooooooo",
"++++++++O.+OOOOOOOOOO+.Xoooooooo",
"+++++++O.+OOOOOOOOOOOO+.Xooooooo",
"+++++++O.+OOOOOOOOOOOO+.Xooooooo",
"++++++O.+OOOOOOOOOOOOOO+.Xoooooo",
"++++++O.+OOOOOOOOOOOOOO+.Xoooooo",
"+++++O.+OOOOOOOOOOOOOOOO+.Xooooo",
"+++++O.+OOOOOOOOOOOOOOOO+.Xooooo",
"+++++O.+OOOOOOOOOOOOOOOO+.Xooooo",
"++++O.+OOOOOOOOOOOOOOOOOO+.Xoooo",
"++++O.+OOOOOOOOOOOOOOOOOO+.Xoooo",
"+++O.+OOOOOOOOOOOOOOOOOOOO+.Xooo",
"+++O.+OOOOOOOOOOOOOOOOOOOO+.Xooo",
"++O.+OOOOOOOOOOOOOOOOOOOOOO+.Xoo",
"++O.+OOOOOOOOOOOOOOOOOOOOOO+.Xoo"};
