/* XPM */
static char *Grass[] = {
/* columns rows colors chars-per-pixel */
"32 32 5 1 ",
"  c #70A625",
". c #7BC331",
"X c #608B58",
"o c #89BC33",
"O c #94BF3B",
/* pixels */
"OO  OOX O. OO o OO  OOX O. OO . ",
" ..  X.O.XO...   ..  X.O.XO..   ",
" XXOO XXX  X...  XXOO XXX  X..  ",
"o XO..  OO  XX. o XO..  OO  XX. ",
"O   .. X.. O   XO   .. X.. O   X",
". o XX  X.X.O XO. o XX  X.X.O XO",
".    XO    X. X..    XO    X. X.",
" XO. O. OO    X. XO. O. OO    X.",
" XO. O  O..Xo    XO. O  O..Xo   ",
"  X. .  X..  OO   X. .  X..  OO ",
"o      o X.. X.Oo      o X.. X.O",
"   o O    .. oX.   o O    .. oX.",
"O  X O.OX   o   O  X O.OX   o   ",
".OO X .O.  OO XO.OO X .O.  OO XO",
" X..X . .X X.OX. X..X . .X X.OX.",
"  X.  X  X  X.    X.  X  X  X.  ",
"OO  OOX O. OO o OO  OOX O. OO o ",
" ..  X.O.XO...   ..  X.O.XO...  ",
" XXOO XXX  X...  XXOO XXX  X... ",
"o XO..  OO  XX. o XO..  OO  XX. ",
"O   .. X.. O   XO   .. X.. O   X",
". o XX  X.X.O XO. o XX  X.X.O XO",
".    XO    X. X..    XO    X. X.",
" XO. O. OO    X. XO. O. OO    X.",
" XO. O  O..Xo    XO. O  O..Xo   ",
"  X. .  X..  OO   X. .  X..  OO ",
"o      o X.. X.Oo      o X.. X.O",
"   o O    .. oX.   o O    .. oX.",
"O  X O.OX   o   O  X O.OX   o.  ",
".OO X .O.  OO XO.OO X .O.  O .  ",
" X..X . .X X.OX. X..X . .X  .  .",
"  X.  X  X  X.    X.  X  X  .  ."
};
