/* XPM */
static char *_c68ae6205574a4cf06ead9c03c7cbceop21lQhImxsIknaV[] = {
/* columns rows colors chars-per-pixel */
"64 64 40 1 ",
"  c #7E6820",
". c #8A7223",
"X c #967C26",
"o c #A28629",
"O c #AE902C",
"+ c #BA9A2F",
"@ c #C6A432",
"# c #CDAC3A",
"$ c #D0B146",
"% c #D3B752",
"& c #D6BB5E",
"* c #D6BC5E",
"= c #D9C06A",
"- c #DCC676",
"; c #DFCB82",
": c #E2CF8E",
"> c #E2D08E",
", c #E5D49A",
"< c #E5D59A",
"1 c #E4DB9A",
"2 c #E4DC9A",
"3 c #E7DFA6",
"4 c #E8DAA6",
"5 c #EBDFB2",
"6 c #E7E0A6",
"7 c #EAE3B2",
"8 c #EAE4B2",
"9 c #EEE4BE",
"0 c #EDE7BE",
"q c #EDE8BE",
"w c #F1E9CA",
"e c #F1ECCA",
"r c #F3EFD6",
"t c #F4EED6",
"y c #F4F0D6",
"u c #F7F3E2",
"i c #F7F5E2",
"p c #FAF9EE",
"a c #FDFDFA",
"s c white",
/* pixels */
"e544444;;@=--<>;<444444;;;;;;;---&$=-<<4;;;44444444;;@&&->>00<=%",
"<q3eyee<.=.$<==&$=&-;;-;%%<;>><><&==>=-%#=>+---=;==>%=&-<88qeq4@",
";q00y00<$44$->%@;;-%+&&<5<80000004444;;-%-=;444;;4444$=4yyyyypy>",
";<444*%>ey0004=*>>>=44000000000000004;=;;><400000000004>4000000>",
"=;&+%6yyy0000000000;;4y000000000000004%;4000000000000000;;00004$",
"%=O40yyyy00000000000=4y0000000000000044>y0000000000000000>$*44;=",
";$;yyy000000000000000*y0000000000000040yy000000000000000000>=&4X",
";;-y0y000000000000000=yyy00000000000041sy00000000000000000004>%<",
";;=yyy000000000000000*4y0y00000000004<3py00000000000000000004;->",
";;%yy0000000000000000-<440yyy0000444&-00y00000000000000000004=;;",
";;@00y00000000000007=%=<:-=<04<;=&&&;=*yy0000000000000000004;>&>",
";-%%4y0000000000e><*;<<:444<=0055>->;=>000000000000000000044=<$-",
"%%000000y0000yy0;;%;$-&=&=&--::<<;;;;4<-0yss0000000000000;-<44;=",
"%400y00<00005=4>--44>#<4444044444444004-;0uaspriiipir044**4wp0><",
"-000004$+$%#$;;40007;-$<<0044000000000yy0%%->44*==><<>=-&>0p0074",
"*40000-$=*$=>=&400784%004000000000000000y0yyy--004=;;44#-40s0034",
"+;444:54000000%507704>y0000000000000000000000008=<;<<<4;444tpp4;",
";&%;:<yy00000006#%-4>e0000000000000000000000000y5*%;;444s00444;=",
"<4-%5yy0000000000-#<7y000000000000000000000000000044440s0000004#",
"00q4pp0000000000s8w80yyy0000000000000000000000000004;40i0000004&",
"00s0yy00000000000q00y000000000000000000000000000000440rw0000000-",
"00e4yy00000000000q0yy000000000000000000000000000000440r00000000>",
"00e*0y00000000000y000y0000000000000000000000000000044ii00000000>",
"00e*0y00000000000qt00y00000000000000000000000000004;4sw00000000%",
"00q>4y00000000000<=<4y0000000000000000000000000004;;4yw00000000=",
"<0w+o5yy00000000445;000000000000000000000000000y4;;;4y0r0000000-",
"%->;4-><%>0000444+.&@&000yyyy0000000000000000444004440yp0000004&",
"=4yyy0qe4<>444$<&;;;<;&=44444yy000000000044444yy00yy04ysi000004$",
"<qy00000003#%$oo-;;;;<;4==--;404444000444;;;4000y000y044ss0044;%",
"%0y0yyyyyy0;4004;44444444;;;=$;<;0044444;$=;;<770yyyy0;;4pu4;;=#",
"%;000444>--0yy0000000000044444%45=-;;;;;+=---;4<;;;>o%-@=;<4=@%;",
"%=&;;>;70ppsyy000000000000000044;;;-%@--;;4;;4444444444;=>4;;%44",
"-;$4480008eyy000000000000000000444;;&-;;444440000000000444@%;&;4",
"@&<3ei7eq00000000000000000000000044<%44440i0000000000000044;$$44",
";<77yppy00000000000000000000000000q<&;;4rrp0000000000000000444;;",
";4700y000000000000000000000000000ya4#;urwra0000000000000000004;;",
";>700y0000000000000000000000000000q0@4isp0000000000000000000004;",
";%400y00000000000000000000000000004;%ts000000000000000000000004;",
";&4440y000000000000000000000000044=;@tw000000000000000000000004;",
";;000040000000000000000000000044;;-;#4iws0000000000000000000004;",
">ey0yy0444440000000000000444>>&&@==-=;4sw000000000000000000004;;",
"400yy004;;;;;==;>><4444>$*%%>4444>=&;;;4psi000000000000000004444",
"400y00y0;; O&>>>>>piesyyssyp0000000>;<<><4ssawpi0000000000444;;;",
";40yyy0;$==40yyyyypsspssspp00000000000004>;>>rssp000000444;;4;;;",
";;44403;4e8yy0000000000000000000000000000000<-<45444444;ws444444",
";;;;-<47q30yyy00000000000000000000000000000000>>;;4444;00wp0004;",
";;;<5sqe0000000000000000000000000000000000000007><;;;;4sii000004",
";$=yr80yy00000000000000000000000000000000000000003---4ss00000000",
"$&0ayy000000000000000000000000000000000000000000004;$taa00000000",
"&>yayy0000000000000000000000000000000000000000000004:tw000000000",
"Xu0i00y000000000000000000000000000000000000000000004<40000000000",
"&uyr000y00000000000000000000000000000000000000000004:t0000000000",
"@<tip00y0000000000000000000000000000000000000000004;#u0000000000",
"=&5iisry0000000000000000000000000000000000000000004=:<4000000004",
";=;44isa000000000000000000000000000000000000000044;-$-=;e800004;",
";=<<<00ysi00iirw00000000000000000000000000000044;;;%44444<=>44;;",
";O&;;;<40isr000wr00000000000000000000000000044;;;-;;0000000<>&@;",
";;;%#;>-;<550440pias00000000000000000000<>--=;;-:4i00000000004-;",
";;;@<yy0000eq44<;0yy0000000000000004=;=<<444=;%=t0q00000000000>;",
";4;8yy000yyyy0006=;;4444444;%>;4444;-4riaw0000$4twq00000000000<;",
";=epssyyyyy00000004%4444><>4;44$*<008ip0000000820ps00000000000>;",
";;e00yy0y000000000<<iyipwrir00000ee*;ss00000000qswq00000000004=&",
";;4000yy0000000004;4wrspwpi00irwps0e;4w000000044=;;4w00000044;=%",
"-:<00y00000000044&#-5t444444;444444w%5uw444444;;#:%;<===-44;;-&-"
};
