/* XPM */
static char *c27f971e548d4a56ffc709d4319a3525Lv9pY50uR08Ji12T[] = {
/* columns rows colors chars-per-pixel */
"32 32 5 1 ",
"  c None",
". c #E6AF00",
"X c #F4974C",
"o c #FBCF48",
"O c #F1ED87",
/* pixels */
"               OO               ",
"              OOOO              ",
"             OOXXOO             ",
"             OoXXoO             ",
"            OooOOooO            ",
"            Oo OO oO            ",
"           Ooo XX ooO           ",
"           Oo  XX  oO           ",
"          OooOOOOOOooO          ",
"          Oo...OO...oO          ",
"         Ooo...XX...ooO         ",
"         Oo    XX    oO         ",
"        Ooo    OO    ooO        ",
"        Oo     OO     oO        ",
"        Oo     XX     oO        ",
"               XX               ",
"               OO               ",
"              OOOO              ",
"             OOXXOO             ",
"             OoXXoO             ",
"            Ooo  ooO            ",
"            Oo    oO            ",
"           Ooo    ooO           ",
"           Oo      oO           ",
"          OooOOOOOOooO          ",
"          Oo........oO          ",
"         Ooo........ooO         ",
"         Oo          oO         ",
"        Ooo          ooO        ",
"        Oo            oO        ",
"        Oo            oO        ",
"                                "
};
