/* XPM */
static char *_326423dbbdb426a8caf6ea89c7f3ef3ZEAWDeKp5I22Vzna[] = {
/* columns rows colors chars-per-pixel */
"64 64 23 1 ",
"  c black",
". c #0D0803",
"X c #1A0F05",
"o c #1B1005",
"O c #271708",
"+ c #281708",
"@ c #341F0A",
"# c #41260D",
"$ c #4E2E0F",
"% c #4F2F10",
"& c #5C3713",
"* c #693E16",
"= c #764619",
"- c #834E1C",
"; c #90561F",
": c #9D5E22",
"> c #AA6625",
", c #B76E28",
"< c #C4762B",
"1 c #D17E2E",
"2 c #D4863B",
"3 c #D78E48",
"4 c #DA9655",
/* pixels */
"$$$@#$$##$$###@O@OOO@##@##@##@##@##@@O@O@O####@@####@#@#######$$",
"@1122,<1>><<,,><<<<<1<1-1,22<,<<,-:-:1><1<111212,,111,-,1<,,,-2#",
"#<>*<,;>,:*>1<;;42,,13242<,11<233<1&o><<<<<,,*<;;,-<,*:>,,:>==:$",
"#3,:,->1<12<&,3<:22341112<,,,;=%%**@->>,11>1;1<1<,<,<>,2,,:1,,;$",
"#:&&>-213-;;&+%;<,-*<:=&:;:>>,;-,<.1,>2<<11*;>;--;><-*=;>-::>*1$",
".<:231,, *;>;122,<&>;,113213><33>#:=;>>>:;:>:><<<>=>:;-<,><1111#",
"@3%o=;1,&,22:;-:->,,<2,>->:><:&%%.-*11::+,&-,>,>,&*<22>#=&;=1:>#",
"#&1:;,3,:--:,-,,432;>,21:@.@ &;<*@* :>>:;*;-<<>,>1<%%&,@2:,< ,>#",
"@1,<><>>31,>,-,1:-,3;=#&,>222=;-:21->,>,,<>>;=,1,,><:-2&:<>>&1-#",
"#$#$$##$$$#$$@OO#$#@##$$$$$$#######O$$$$$$$$$$#@XOO##.@O@##@$#$$",
"#,;1><3><1222132<<<1221<222221,<<,,,,>:>::>:,=>>;:-,,:12>>1:*1-#",
"@<#. @&<>:+3123124<1,<>:1111<:;,1<-:*>321<22*,,2>2,,,>,*-<==1<:$",
"#,=%,:><,#=;@-21,&,22<2<1222><::=>111:1;#,<,**1<:,231>>2,2,*# %@",
"@>:>:<&,1,,>%&>1<333<132<1-;-1,&1222<=*:<>-:>;>;,<<1;<>11>-;=<=#",
"#,>=21,&,>11<<2;>1-;11,*<122:*+<2,,,,<;,>122123:,24*<;>:=*&:,,-#",
"@:>;2,<3=::::;>,:;>:<<>-:>>=.o.@<-<-12&:::,-<&=>,<1;<2>*;<*-<::$",
"O,*>-31:,1111<233<21111;::>11112><22>;=2- 3%>>-,,1:*1<2;1::*>-;#",
"O-#-,33;;12>><:1<221211,,,<1;,,<1<:221<<11,-:1>%=<1#-<<>>,1:,>&$",
"@@#@#@#######@OXOO###@@$@#$$$$$$$$$###@#@X@#$O@XOOXOXO$##O#@$$$@",
"@>>*<<2:::1;<12,->;==<11,,>=&:::,,1,,1>:::>;-;>--;-,;:=:,,,1,:>#",
"@>+,1:,:<>-<>&=;=&;,&<<=>>;,:;:<:,,>>=>>-:>:,>,221>1<2223<2<>=;@",
"O=+2,*1>,<,;1>221>,-<1,>,>1,,>>2,11,,<<2,,>=,-<;1,<12>-:-><*:%=@",
"O::3><3->;<<2>:214<113::<;243,<:32<:2>,<=:><<<,<,2><1122>2<;>>%O",
"#&-1;,-2<1;>12<<1,<<>:,>:,3<-><,,;22<1><>>,<==--::2<<221,:#,>>:#",
"@;*11,:*<234,<2%--,;>>2<34:<<12132;<,<2<>1<>1,>>:<><>&;*%>=<=2,#",
"#;%:2<:1,231,423232223,2,:><,1,<<<,,>>:<3213=,11<<<122<,,,>,*,>@",
"@=-==*&-=->21><>>&#><;,,<:<-,1,:1<>-:,:<,:111:,1<>1<><<>:>,:;-*$",
"#$@$#$$####XOOXXO$$O@@@##@@@@##@##$$#$#$$$$#$#$#$##@$$$#$#$$$$##",
"#1<1:,1<223333233333333231:>,:>>,><<,::;::;%=;#>:<,1332<2<<>;&%@",
"$->,4,2<::<233323332331,><1,2<21<12:<><2;>1,,<,:>:,::121323,,<:O",
"$*<>;&31:2<<,133331<1<23<<<>:33322<,<-::<:;:=&%*=>@:>>=&=#;*:1=$",
"#-,&3-112134>1;;;:>>:><;&:>-->-*;:&,1;,11<1<:,1,1=2==:-;<=>=:<>#",
"@%=#<>,1:;;,<121<,,12<=-,>,>:,<1>1:2<<:>,,1>3<<3>>=:<,>1>,=:-,-X",
"$,<%;>=<323,-,<2112,<><::233<<1,><>><11<22<,=1:>:1,:2>13=;;-1:>#",
"@:=<43<<,,-21,2211<=,;,,:>11,<<232331<1<,<:-<::>:,:=:;-==::12<-O",
" =,=2,:,&-,;-*>>>;1>>1,<><11<1,<<,<>;>;,,>>:<,>,,>:,<>,;,<o*# #@",
"#$$#$X#@@X  . ###O. OX@@OO##O##O@OO@OOOOO@.@@X@@####@@$$$$#$$#@@",
"#2>,:=2-1112,<2133222<222><,;<,>,<:,:,,2>,,<,3212212,:<:,,*1<->$",
"X-<@>;>,11121<:<-<>11232<,<1,,:<<<><,>;--->>,<<11<111:>,,,:<; * ",
"@:3-:3211>,;:,><,>:;%-=*&*;>:<,,>>:<1111<2232331<221221-,1<12+1O",
" 2;<>,:,122<<,,>,<;->;;;;==,;,>:<,<>,,>><:>,33331121><3233,12&< ",
"@4:-><22,-;;:;<,<><<<1<11,11<<11,11<33234243322,,%-;-;-:,,:,<*,O",
"X3>1<>2:>3311>1232232<1,1<1313333231,:-:&==>;#;-:><,;11,<;1>2-=#",
"  @:-:,@#,->;::--*%;:><>,&=;-=;,->::,,;-,122212;11,1>-,>:<,=:@=$",
"#%&->2:=,>@,,:2->*:>>%-><::,::;>:>-;*-:,;:;;>>>11>1,<<2211;,:<-O",
"X@# #.O #@X@  .OOXX.XX.OO.#O..OXO@OOOOOO XOOOOO.. XOO@OX@#@@@$$$",
"#111,-:>>>,:<<<<12<222221>>,<<<11<,:<>,,111121232312<,213233222X",
"@1;%,1>13,:;1233222<2,1,<<22<<2221,1<211<12<11<<<1,>:,,<;>==;>;@",
"X-,>1:-1>22333111><>,,>11>,>,<1,<,<1,<1>,,<1<:1<><11<<,,1312<22O",
" :1<;<:12;11:<122<11,<1<<><1<1122,<;<,,;1::--:>;>>::>,,211:4344$",
" ,=:=::1,<,<><<>><>>,;:;>>>,>,:,>,1,11<<<332,:,>,<1,<<1::>>>:,>O",
"$2.><,1<;2321>,,;:;:::*;:*>>-<,,;<,,-,>,,>,<1213322212233111>-,X",
"#-,1;22:221234333124213,<><2<,>;*;*:;===::::>::;;-;&-;=*=&&*-:, ",
" : >32<,2112<<33,>;>,1233<31::>>>,<,>--::;>>;>;:;;;=,><22322312O",
" $ X.X.X#$O@##OXX.XXOO@ X .O.#@ X . XX .X     XXXX  X.X.    .OO#",
"#3<,1,<22<<<:,;:<<><;:;;>;,,,,1,,<<1>-,,<1<,<,:>::11212<2322211X",
"#12>:23223221<111221>,><,>:>>;&%%**=-**-***;-;<,:,>=:=-:>:-;><,.",
"@2,:11<><,,=:,<<;;=->:,=-:;::**&:*;:=--:::>:,:;::-::>>>:,;-;;,,.",
"@1<4:,1;-->>,=-*=-:>#&%*==*;-:,,;>>-:<>,<-,,,,,,<<,><1<,<,,,,,,.",
"@<2,<,>;,<>,;:,,,--:;>:>,>;::;;>:;:-<<,,,,,>:<,,<21222<<><>>,22O",
"#2<,1,>;,1<<1-<<,<12,<<;>-:>:>>>,:>:>>>>:,:><<<<,-&:>,:,,>>11><.",
" +;>-;<>,<,,11>,::>,>,>>:>,,,::,>,;:-;;:-;---:;->>-11<212113234$",
"X;%,,>>,,<,<<,1121<<<,,<,>>>,->-=#&*-&;->--;:>12<1>::-,<<31322<.",
" O@O.OOXOXOOXOXO .  .     ..   X.  X..XXX.OXO .   .    XOO X@@@$"
};
